<svg width="16" height="15" viewBox="0 0 16 15" fill="none" xmlns="http://www.w3.org/2000/svg">
<g style="mix-blend-mode:color-burn">
<path d="M11.0111 10.1443L11.6414 10.9164C11.6465 11.2164 11.6524 11.4997 11.6591 11.7664L4.68504 3.17702L4.53496 2.99219H4.29688H4.21875H4.06371L3.98438 2.89513V2.99219H3.92845C3.92389 2.82697 3.919 2.66524 3.91379 2.50699L3.90668 2.29107L3.74458 2.14826C3.71512 2.12231 3.68526 2.09703 3.655 2.07243C3.90154 2.07537 4.15873 2.07717 4.42654 2.07783L11.0111 10.1443ZM11.9908 2.06199C11.9048 2.1577 11.8346 2.26692 11.787 2.39055C11.7404 2.26678 11.6709 2.15743 11.5855 2.06167C11.6757 2.06222 11.7644 2.0625 11.8516 2.0625C11.8949 2.0625 11.9413 2.06233 11.9908 2.06199ZM3.60712 12.5005C3.69485 12.4031 3.76633 12.2919 3.8146 12.1659C3.86176 12.292 3.93254 12.4034 4.01973 12.5009C3.92821 12.5003 3.8383 12.5 3.75 12.5C3.70544 12.5 3.65781 12.5002 3.60712 12.5005ZM1.50939 2.68609C2.01046 2.72377 2.36332 2.81881 2.60222 2.94179C2.63821 4.14197 2.65625 5.49457 2.65625 7C2.65625 9.02614 2.62747 10.5743 2.57069 11.6497C2.54752 11.66 2.51877 11.6714 2.48363 11.6835C2.26808 11.7578 1.90942 11.8263 1.3816 11.8773L1.07853 11.9066L0.965449 12.1893C0.87565 12.4138 0.820312 12.6444 0.820312 12.875C0.820312 13.0727 0.878474 13.3049 0.954252 13.5376L1.07108 13.8964L1.44819 13.8825C2.2861 13.8514 3.10284 13.8359 3.89844 13.8359C4.67827 13.8359 5.46605 13.8514 6.26178 13.8824L6.63962 13.8972L6.75669 13.5376C6.83246 13.3049 6.89062 13.0727 6.89062 12.875C6.89062 12.6444 6.83529 12.4138 6.74549 12.1893L6.63067 11.9023L6.32258 11.8767C5.76853 11.8308 5.39037 11.7641 5.16202 11.6891C5.12241 11.6761 5.09028 11.6637 5.06466 11.6525C5.00339 9.98813 4.97141 7.9975 4.96891 5.6797L11.5113 13.6836L11.6661 13.873L11.9106 13.867L12.5513 13.8514L13.062 13.839L13.0385 13.3286C12.9713 11.8655 12.9375 9.9443 12.9375 7.5625C12.9375 5.53838 12.9686 3.98953 13.03 2.91053C13.053 2.90049 13.0814 2.88944 13.1159 2.87772C13.3324 2.80419 13.6919 2.7362 14.22 2.68518L14.523 2.6559L14.6361 2.3732C14.7259 2.1487 14.7812 1.91808 14.7812 1.6875C14.7812 1.50506 14.7192 1.27693 14.6473 1.05614L14.5305 0.697313L14.1534 0.71128C13.3155 0.742314 12.4987 0.757812 11.7031 0.757812C10.9128 0.757812 10.1251 0.742316 9.34003 0.711327L8.962 0.696404L8.84488 1.05614C8.77299 1.27693 8.71094 1.50506 8.71094 1.6875C8.71094 1.91808 8.76628 2.1487 8.85607 2.3732L8.97089 2.66023L9.27898 2.68579C9.83328 2.73177 10.2123 2.79779 10.4415 2.87211C10.4797 2.88449 10.511 2.89624 10.5362 2.90696C10.5795 4.28925 10.6035 5.51429 10.6084 6.58254L6.09338 0.945245L5.94326 0.757812H5.70312C4.04598 0.757812 2.67964 0.731819 1.60202 0.680259L1.31139 0.666353L1.15572 0.912161C1.00388 1.15189 0.929688 1.41987 0.929688 1.70312C0.929688 1.9589 0.985165 2.20598 1.1098 2.43032L1.24067 2.66589L1.50939 2.68609Z" fill="#CC0E0E"/>
<path d="M11.0111 10.1443L11.6414 10.9164C11.6465 11.2164 11.6524 11.4997 11.6591 11.7664L4.68504 3.17702L4.53496 2.99219H4.29688H4.21875H4.06371L3.98438 2.89513V2.99219H3.92845C3.92389 2.82697 3.919 2.66524 3.91379 2.50699L3.90668 2.29107L3.74458 2.14826C3.71512 2.12231 3.68526 2.09703 3.655 2.07243C3.90154 2.07537 4.15873 2.07717 4.42654 2.07783L11.0111 10.1443ZM11.9908 2.06199C11.9048 2.1577 11.8346 2.26692 11.787 2.39055C11.7404 2.26678 11.6709 2.15743 11.5855 2.06167C11.6757 2.06222 11.7644 2.0625 11.8516 2.0625C11.8949 2.0625 11.9413 2.06233 11.9908 2.06199ZM3.60712 12.5005C3.69485 12.4031 3.76633 12.2919 3.8146 12.1659C3.86176 12.292 3.93254 12.4034 4.01973 12.5009C3.92821 12.5003 3.8383 12.5 3.75 12.5C3.70544 12.5 3.65781 12.5002 3.60712 12.5005ZM1.50939 2.68609C2.01046 2.72377 2.36332 2.81881 2.60222 2.94179C2.63821 4.14197 2.65625 5.49457 2.65625 7C2.65625 9.02614 2.62747 10.5743 2.57069 11.6497C2.54752 11.66 2.51877 11.6714 2.48363 11.6835C2.26808 11.7578 1.90942 11.8263 1.3816 11.8773L1.07853 11.9066L0.965449 12.1893C0.87565 12.4138 0.820312 12.6444 0.820312 12.875C0.820312 13.0727 0.878474 13.3049 0.954252 13.5376L1.07108 13.8964L1.44819 13.8825C2.2861 13.8514 3.10284 13.8359 3.89844 13.8359C4.67827 13.8359 5.46605 13.8514 6.26178 13.8824L6.63962 13.8972L6.75669 13.5376C6.83246 13.3049 6.89062 13.0727 6.89062 12.875C6.89062 12.6444 6.83529 12.4138 6.74549 12.1893L6.63067 11.9023L6.32258 11.8767C5.76853 11.8308 5.39037 11.7641 5.16202 11.6891C5.12241 11.6761 5.09028 11.6637 5.06466 11.6525C5.00339 9.98813 4.97141 7.9975 4.96891 5.6797L11.5113 13.6836L11.6661 13.873L11.9106 13.867L12.5513 13.8514L13.062 13.839L13.0385 13.3286C12.9713 11.8655 12.9375 9.9443 12.9375 7.5625C12.9375 5.53838 12.9686 3.98953 13.03 2.91053C13.053 2.90049 13.0814 2.88944 13.1159 2.87772C13.3324 2.80419 13.6919 2.7362 14.22 2.68518L14.523 2.6559L14.6361 2.3732C14.7259 2.1487 14.7812 1.91808 14.7812 1.6875C14.7812 1.50506 14.7192 1.27693 14.6473 1.05614L14.5305 0.697313L14.1534 0.71128C13.3155 0.742314 12.4987 0.757812 11.7031 0.757812C10.9128 0.757812 10.1251 0.742316 9.34003 0.711327L8.962 0.696404L8.84488 1.05614C8.77299 1.27693 8.71094 1.50506 8.71094 1.6875C8.71094 1.91808 8.76628 2.1487 8.85607 2.3732L8.97089 2.66023L9.27898 2.68579C9.83328 2.73177 10.2123 2.79779 10.4415 2.87211C10.4797 2.88449 10.511 2.89624 10.5362 2.90696C10.5795 4.28925 10.6035 5.51429 10.6084 6.58254L6.09338 0.945245L5.94326 0.757812H5.70312C4.04598 0.757812 2.67964 0.731819 1.60202 0.680259L1.31139 0.666353L1.15572 0.912161C1.00388 1.15189 0.929688 1.41987 0.929688 1.70312C0.929688 1.9589 0.985165 2.20598 1.1098 2.43032L1.24067 2.66589L1.50939 2.68609Z" stroke="black"/>
</g>
</svg>
